<?xml version="1.0" encoding="UTF-8"?>
<svg width="22px" height="22px" viewBox="0 0 22 22" version="1.1" xmlns="http://www.w3.org/2000/svg" xmlns:xlink="http://www.w3.org/1999/xlink">
    <!-- Generator: Sketch 53.2 (72643) - https://sketchapp.com -->
    <title>basket-off</title>
    <desc>Created with Sketch.</desc>
    <defs>
        <path d="M1.81818182,7.44363634 C1.41049524,7.44363634 1.07999997,7.77413161 1.07999997,8.18181818 C1.07999997,8.58950476 1.41049524,8.92000003 1.81818182,8.92000003 L18.1818182,8.92000003 C18.5895048,8.92000003 18.92,8.58950476 18.92,8.18181818 C18.92,7.77413161 18.5895048,7.44363634 18.1818182,7.44363634 L1.81818182,7.44363634 Z M1.81818182,6.36363636 L18.1818182,6.36363636 C19.1859723,6.36363636 20,7.17766409 20,8.18181818 C20,9.18597227 19.1859723,10 18.1818182,10 L1.81818182,10 C0.814027728,10 1.22973409e-16,9.18597227 0,8.18181818 C-1.22973409e-16,7.17766409 0.814027728,6.36363636 1.81818182,6.36363636 Z M4.23789471,6.75584416 L3.15789474,6.75584416 C3.15789474,3.02469446 6.16229971,-8.30446822e-14 9.86842105,-8.30446822e-14 C13.5745424,-8.30446822e-14 16.5789474,3.02469446 16.5789474,6.75584416 L15.4989474,6.75584416 C15.4989474,3.61954083 12.9764416,1.07999997 9.86842105,1.07999997 C6.76040047,1.07999997 4.23789471,3.61954083 4.23789471,6.75584416 Z" id="path-1"></path>
    </defs>
    <g id="Page-1" stroke="none" stroke-width="1" fill="none" fill-rule="evenodd">
        <g id="basket-off" transform="translate(1.000000, 1.000000)">
            <path d="M17.6418182,9.68626046 C17.6418182,9.3880267 17.8835844,9.14626047 18.1818182,9.14626047 C18.4800519,9.14626047 18.7218182,9.3880267 18.7218182,9.68626046 L18.7218182,17.6436364 C18.7218182,19.2432539 17.425072,20.54 15.8254546,20.54 L4.17454539,20.54 C2.57492797,20.54 1.27818183,19.2432539 1.27818183,17.6436364 L1.27818183,9.68626046 C1.27818183,9.3880267 1.51994806,9.14626047 1.81818182,9.14626047 C2.11641558,9.14626047 2.3581818,9.3880267 2.3581818,9.68626046 L2.3581818,17.6436364 C2.3581818,18.6467863 3.17139548,19.46 4.17454539,19.46 L15.8254546,19.46 C16.8286045,19.46 17.6418182,18.6467863 17.6418182,17.6436364 L17.6418182,9.68626046 Z" id="Path" stroke="#708C9B" stroke-width="0.2" fill="#708C9B" fill-rule="nonzero"></path>
            <path d="M6.07117371,12.6851212 L6.07117371,17.3910184 L6.07117371,12.6851212 Z M10.1501211,12.6851212 L10.1501211,17.3910184 L10.1501211,12.6851212 Z M14.3606474,12.6851212 L14.3606474,17.3910184 L14.3606474,12.6851212 Z" id="Combined-Shape" stroke="#708C9B" stroke-width="1.4" stroke-linecap="round" stroke-linejoin="round"></path>
            <mask id="mask-2" fill="white">
                <use xlink:href="#path-1"></use>
            </mask>
            <use id="Combined-Shape" stroke="#708C9B" stroke-width="0.2" fill="#708C9B" fill-rule="nonzero" xlink:href="#path-1"></use>
        </g>
    </g>
</svg>