<?xml version="1.0" encoding="UTF-8"?>
<svg width="381px" height="496px" viewBox="0 0 381 496" version="1.1" xmlns="http://www.w3.org/2000/svg" xmlns:xlink="http://www.w3.org/1999/xlink">
    <!-- Generator: Sketch 53.2 (72643) - https://sketchapp.com -->
    <title>vector@1x</title>
    <desc>Created with Sketch.</desc>
    <defs>
        <linearGradient x1="50%" y1="0%" x2="50%" y2="100%" id="linearGradient-1">
            <stop stop-color="#FF4646" stop-opacity="0.05" offset="0%"></stop>
            <stop stop-color="#FF3434" stop-opacity="0.5" offset="49.0131183%"></stop>
            <stop stop-color="#FF2222" stop-opacity="0.05" offset="100%"></stop>
        </linearGradient>
        <linearGradient x1="50%" y1="0%" x2="56.2822539%" y2="100%" id="linearGradient-2">
            <stop stop-color="#67FFB3" offset="0%"></stop>
            <stop stop-color="#288385" offset="100%"></stop>
        </linearGradient>
        <linearGradient x1="50%" y1="0%" x2="54.5562988%" y2="100%" id="linearGradient-3">
            <stop stop-color="#96F3C5" offset="0%"></stop>
            <stop stop-color="#1FB89F" offset="100%"></stop>
        </linearGradient>
    </defs>
    <g id="v-0.3" stroke="none" stroke-width="1" fill="none" fill-rule="evenodd">
        <g id="Document-Scan-/-take-photo-1.1" transform="translate(-110.000000, -217.000000)">
            <g id="vector" transform="translate(110.000000, 221.000000)">
                <g id="phone" transform="translate(63.980605, 0.000000)">
                    <path d="M36.72,3.6 C18.4283291,3.6 3.6,18.4283291 3.6,36.72 L3.6,429.586306 C3.6,447.877977 18.4283291,462.706306 36.72,462.706306 L216.499016,462.706306 C234.790687,462.706306 249.619016,447.877977 249.619016,429.586306 L249.619016,36.72 C249.619016,18.4283291 234.790687,3.6 216.499016,3.6 L36.72,3.6 Z M36.72,-3.6 L216.499016,-3.6 C238.767137,-3.6 256.819016,14.4518789 256.819016,36.72 L256.819016,429.586306 C256.819016,451.854427 238.767137,469.906306 216.499016,469.906306 L36.72,469.906306 C14.4518789,469.906306 -3.6,451.854427 -3.6,429.586306 L-3.6,36.72 C-3.6,14.4518789 14.4518789,-3.6 36.72,-3.6 Z" id="Rectangle" fill="#122252" fill-rule="nonzero"></path>
                    <g id="Group-2" opacity="0.400000006" transform="translate(38.388363, 72.792793)">
                        <rect id="Rectangle" fill="#99B5F9" x="0" y="0" width="172.657521" height="268.288288" rx="8.46"></rect>
                        <rect id="Rectangle" fill="#FFFFFF" x="17.6622517" y="25.4054054" width="134.449385" height="74.2342342" rx="8.46"></rect>
                        <rect id="Rectangle-Copy" fill="#FFFFFF" x="17.6622517" y="117.477477" width="117.147588" height="7.20720721" rx="3.6"></rect>
                        <rect id="Rectangle-Copy-2" fill="#FFFFFF" x="17.6622517" y="144.684685" width="117.147588" height="7.20720721" rx="3.6"></rect>
                        <rect id="Rectangle-Copy-3" fill="#FFFFFF" x="17.6622517" y="171.891892" width="117.147588" height="7.20720721" rx="3.6"></rect>
                        <rect id="Rectangle-Copy-4" fill="#FFFFFF" x="17.6622517" y="199.099099" width="117.147588" height="7.20720721" rx="3.6"></rect>
                        <rect id="Rectangle-Copy-5" fill="#FFFFFF" x="17.6622517" y="226.306306" width="69.0269631" height="7.20720721" rx="3.6"></rect>
                    </g>
                    <path d="M210.317333,63.2405405 L225.827909,77.7430621 L225.827909,63.2405405 L210.317333,63.2405405 Z M225.827909,333.407976 L206.736607,351.173874 L225.827909,351.173874 L225.827909,333.407976 Z M46.397233,351.173874 L25.4086093,327.774466 L25.4086093,351.173874 L46.397233,351.173874 Z M25.4086093,75.6215229 L39.3805312,63.2405405 L25.4086093,63.2405405 L25.4086093,75.6215229 Z" id="Shape" stroke="#01BEFF" stroke-width="5.4" opacity="0.400000006"></path>
                    <rect id="Rectangle" fill="#D8D8D8" opacity="0.200000003" x="71.910596" y="30.0900901" width="109.397824" height="9.18918919" rx="4.59"></rect>
                </g>
                <g id="scan" transform="translate(0.000000, 130.630631)">
                    <rect id="Rectangle" fill="url(#linearGradient-1)" opacity="0.400000006" x="29.7374645" y="0" width="321.525071" height="223.243243"></rect>
                    <rect id="Rectangle" fill="#FF4848" x="0" y="0" width="381" height="9.00900901" rx="4.5045045"></rect>
                </g>
                <g id="standing" transform="translate(10.453169, 197.657658)">
                    <path d="M4.99124264,275.744293 C4.7338639,249.592441 5.48867226,227.689466 7.25566772,210.035366 C9.02266319,192.381267 13.1194685,165.811639 19.5460836,130.326482 L60.1322111,130.326482 C62.0112717,138.470725 63.0454432,148.346655 63.2347255,159.954273 C63.4240079,171.561891 62.834234,188.938351 61.4654037,212.083653 C56.9128058,224.453779 53.7419129,234.566036 51.9527253,242.420423 C50.1635376,250.274811 48.3447093,262.067021 46.4962405,277.797055 L36.8128412,277.797055 C37.0698369,262.894804 37.7445912,251.549357 38.8371038,243.760715 C39.9296165,235.972072 42.482662,224.306179 46.4962405,208.763037 C45.895865,198.410378 45.1083586,190.510798 44.1337212,185.064298 C43.1590838,179.617797 41.135419,171.807898 38.0627269,161.634601 C30.2152875,185.360525 24.8376025,203.758685 21.9296719,216.829083 C19.0217413,229.899481 15.9369683,249.537884 12.6753531,275.744293 L4.99124264,275.744293 Z" id="Path" fill="#FF7070"></path>
                    <path d="M35.392017,25.2072384 C37.3369992,19.7466358 38.7191912,16.4047978 39.5385931,15.1817244 C40.767696,13.3471142 41.9913443,13.5158021 43.0311946,13.8046836 C44.0710448,14.0935651 45.1442014,14.7153769 45.7841029,16.1490407 C46.210704,17.1048166 46.210704,22.9302904 45.7841029,33.6254621 L35.392017,25.2072384 Z" id="Path-4" fill="#A85FBE"></path>
                    <path d="M23.1877644,55.2864884 C19.4077508,46.5890196 18.6784861,39.8535525 20.9999704,35.0800869 C23.3214547,30.3066213 26.9399672,26.9393056 31.8555078,24.9781399 C37.7838595,24.5126838 42.2408502,26.8358038 45.22648,31.9475001 C50.2749305,40.5909512 47.0508959,48.7149492 46.1040537,50.5691849 C44.7960311,53.1307335 42.6444102,55.5385136 39.649191,57.7925252 L26.6846841,59.3352422 L23.1877644,55.2864884 Z" id="Path-3" fill="#FFB37D"></path>
                    <path d="M21.9589855,56.2409327 C18.9320549,59.1051557 16.4052001,59.5698606 14.5350712,70.084805 C12.6649424,80.5997493 17.6897292,89.8254532 19.5460836,103.17136 C20.7836532,112.068632 20.7836532,121.120339 19.5460836,130.326482 C28.7971355,131.916437 35.7354244,132.711414 40.3609504,132.711414 C44.9864763,132.711414 51.5768965,131.916437 60.1322111,130.326482 C61.6165594,117.206086 62.284053,107.365455 62.134692,100.804588 C61.9853309,94.2437217 60.8897436,85.2798129 58.8479298,73.9128617 C65.2522764,76.6634573 73.9820725,76.8839566 85.0373183,74.5743598 C96.0925641,72.2647629 106.116079,68.1264324 115.107862,62.159368 C121.870603,58.5180589 120.386677,56.7960621 110.656084,56.9933777 C96.0601953,57.289351 93.176935,62.2378438 76.321643,62.9458694 C59.4663511,63.6538949 47.8338583,59.9874469 42.0708713,57.6742501 C36.3078842,55.3610533 30.3956471,58.2936645 28.4257321,58.0721752 C26.4558171,57.8506858 24.9859161,53.3767097 21.9589855,56.2409327 Z" id="Path-2" fill="#A85FBE"></path>
                    <path d="M40.58806,13.8046836 C42.8037576,6.70832611 44.6424222,2.42914423 46.1040537,0.967138011 C48.296501,-1.22587132 51.7463721,0.828682974 52.3460493,2.04368 C52.9457264,3.25867703 54.9064449,7.34596628 52.9457264,11.340449 C51.6385806,14.0034374 49.2513728,16.005404 45.7841029,17.3463486" id="Path-5" fill="#FFB37D"></path>
                    <path d="M105.926533,56.9453251 C108.000858,51.8759983 109.768558,49.0063047 111.229631,48.3362444 C112.690705,47.666184 115.018826,48.6575003 118.213995,51.3101931 C126.352359,48.8726903 130.07261,48.8726903 129.37475,51.3101931 C128.67689,53.747696 123.92126,57.3640876 115.107862,62.159368 L105.926533,56.9453251 Z" id="Path-6" fill="#FFB37D"></path>
                    <path d="M37.1530107,286.022632 C33.3133674,284.251127 33.5390975,279.661806 36.3776874,277.797055 C38.2700806,276.553888 42.428133,276.553888 48.8518445,277.797055 C52.9719227,279.816 53.9916598,281.551132 51.9110559,283.00245 C48.7901499,285.179428 40.9926541,287.794136 37.1530107,286.022632 Z" id="Path-7" fill="#390997"></path>
                    <path d="M15.3952841,283.791471 C17.6502733,283.151319 18.5848897,281.988172 18.1991333,280.302029 C17.8133769,278.615886 15.9721168,277.09664 12.6753531,275.744293 C7.71666694,273.883554 4.22850424,273.883554 2.21086495,275.744293 C-0.815593974,278.535401 -0.657253033,282.966794 2.21086495,285.395016 C4.12294361,287.013831 8.51775,286.479316 15.3952841,283.791471 Z" id="Path-8" fill="#390997"></path>
                </g>
                <ellipse id="Oval" fill="#D8D8D8" opacity="0.300000012" cx="190.590114" cy="415.045045" rx="27.8450804" ry="27.8378378"></ellipse>
                <ellipse id="Oval-Copy" fill="#D8D8D8" opacity="0.300000012" cx="256.913671" cy="415.045045" rx="12.7060076" ry="12.7027027"></ellipse>
                <ellipse id="Oval-Copy-2" fill="#D8D8D8" opacity="0.300000012" cx="114.714522" cy="415.045045" rx="12.7060076" ry="12.7027027"></ellipse>
                <g id="leaves" transform="translate(244.207663, 353.873874)">
                    <g id="Group-3" transform="translate(47.926070, 89.858549) scale(-1, 1) rotate(26.000000) translate(-47.926070, -89.858549) translate(18.161458, 42.033159)">
                        <path d="M32.543023,95.5567836 C45.5602824,95.1885959 57.1662608,89.5765882 59.2090043,78.641528 C61.2517478,67.7064679 52.8873474,67.3944729 52.0055122,58.6416369 C51.123677,49.8888009 58.5943907,48.9647382 55.1831132,38.6817218 C51.7718357,28.3987054 44.5146996,29.3977343 36.4319705,21.7016403 C28.3492413,14.0055463 31.4742663,-6.49210708 21.6750189,2.04100504 C11.8757715,10.5741172 6.02092284,26.8807254 2.97586408,41.6367054 C-0.0691946737,56.3926854 -2.69228141,66.7235139 5.31405094,81.3242426 C13.3203833,95.9249713 19.5257637,95.9249713 32.543023,95.5567836 Z" id="Path-9" fill="url(#linearGradient-2)"></path>
                        <path d="M32.4620087,87.784699 C26.4600065,52.6063945 23.4281601,29.997313 23.3664695,19.9574545" id="Path-10" stroke="#FFFFFF" stroke-width="0.88199997" stroke-linecap="round" transform="translate(27.914239, 53.871077) rotate(-2.000000) translate(-27.914239, -53.871077) "></path>
                        <path d="M32.0347939,77.2272791 C36.3700248,67.5012069 40.8263085,60.939412 45.403645,57.5418942" id="Path-11" stroke="#FFFFFF" stroke-width="0.88199997" stroke-linecap="round"></path>
                        <path d="M26.4854596,51.7372295 C30.8206905,44.3803287 35.2769741,39.4169197 39.8543106,36.8470024" id="Path-11" stroke="#FFFFFF" stroke-width="0.88199997" stroke-linecap="round"></path>
                        <path d="M10.3419414,57.5418942 C15.8223276,51.9306987 21.4557428,48.1450478 27.242187,46.1849414" id="Path-11" stroke="#FFFFFF" stroke-width="0.88199997" stroke-linecap="round" transform="translate(18.792064, 51.863418) scale(-1, 1) translate(-18.792064, -51.863418) "></path>
                        <path d="M12.6121236,81.2653068 C18.9104779,74.2824857 25.3847014,69.5714534 32.0347939,67.1322099" id="Path-11" stroke="#FFFFFF" stroke-width="0.88199997" stroke-linecap="round" transform="translate(22.323459, 74.198758) scale(-1, 1) translate(-22.323459, -74.198758) "></path>
                    </g>
                    <g id="Group-3" transform="translate(47.893523, 0.000000)">
                        <path d="M39.591869,136.508997 C55.4286777,135.983017 69.5485208,127.965904 72.0337242,112.344469 C74.5189277,96.7230337 64.3427911,96.2773289 63.2699497,83.773341 C62.1971082,71.2693532 71.2859847,69.9492703 67.1358217,55.2593216 C62.9856587,40.5693728 54.1566208,41.9965497 44.3231658,31.0021856 C34.4897107,20.0078215 38.2916188,-9.27439153 26.3698462,2.91570666 C14.4480736,15.1058049 7.32505976,38.4008411 3.62043873,59.4807053 C-0.084182298,80.5605696 -3.27543181,95.3188209 6.46507882,116.176899 C16.2055894,137.034976 23.7550604,137.034976 39.591869,136.508997 Z" id="Path-9" fill="url(#linearGradient-3)"></path>
                        <path d="M39.1945133,125.496107 C32.1630301,75.2425387 28.6474217,42.9384036 28.647688,28.5837013" id="Path-10" stroke="#FFFFFF" stroke-width="1.25999998" stroke-linecap="round" transform="translate(33.921101, 77.039904) rotate(-2.000000) translate(-33.921101, -77.039904) "></path>
                        <path d="M38.8453407,110.303432 C44.0803365,96.4624834 49.4615092,87.1245444 54.9888589,82.2896153" id="Path-11" stroke="#FFFFFF" stroke-width="1.25999998" stroke-linecap="round"></path>
                        <path d="M32.1607435,74.2156757 C37.3957393,63.6167509 42.776912,56.4660769 48.3042617,52.7636537" id="Path-11" stroke="#FFFFFF" stroke-width="1.25999998" stroke-linecap="round"></path>
                        <path d="M12.4577069,82.291731 C19.1650452,74.1866708 26.0596728,68.7185084 33.1415896,65.8872436" id="Path-11" stroke="#FFFFFF" stroke-width="1.25999998" stroke-linecap="round" transform="translate(22.799648, 74.089487) scale(-1, 1) translate(-22.799648, -74.089487) "></path>
                        <path d="M15.5127403,116.125014 C23.1198436,106.149556 30.9393602,99.4195096 38.9712902,95.934876" id="Path-11" stroke="#FFFFFF" stroke-width="1.25999998" stroke-linecap="round" transform="translate(27.242015, 106.029945) scale(-1, 1) translate(-27.242015, -106.029945) "></path>
                    </g>
                </g>
            </g>
        </g>
    </g>
</svg>