<?xml version="1.0" encoding="UTF-8"?>
<svg width="46px" height="43px" viewBox="0 0 46 43" version="1.1" xmlns="http://www.w3.org/2000/svg" xmlns:xlink="http://www.w3.org/1999/xlink">
    <!-- Generator: Sketch 53.2 (72643) - https://sketchapp.com -->
    <title>dropdown-arrow</title>
    <desc>Created with Sketch.</desc>
    <defs>
        <filter x="-8.4%" y="-10.0%" width="116.7%" height="120.0%" filterUnits="objectBoundingBox" id="filter-1">
            <feOffset dx="0" dy="4" in="SourceAlpha" result="shadowOffsetOuter1"></feOffset>
            <feGaussianBlur stdDeviation="10" in="shadowOffsetOuter1" result="shadowBlurOuter1"></feGaussianBlur>
            <feComposite in="shadowBlurOuter1" in2="SourceAlpha" operator="out" result="shadowBlurOuter1"></feComposite>
            <feColorMatrix values="0 0 0 0 0.22810768   0 0 0 0 0.281464175   0 0 0 0 0.342844203  0 0 0 0.0957440997 0" type="matrix" in="shadowBlurOuter1" result="shadowMatrixOuter1"></feColorMatrix>
            <feMerge>
                <feMergeNode in="shadowMatrixOuter1"></feMergeNode>
                <feMergeNode in="SourceGraphic"></feMergeNode>
            </feMerge>
        </filter>
    </defs>
    <g id="Page-1" stroke="none" stroke-width="1" fill="none" fill-rule="evenodd">
        <g id="Dashboard-/-main-1.1" transform="translate(-525.000000, -751.000000)" fill="#00334E">
            <g id="All-listing" transform="translate(25.000000, 698.000000)">
                <g id="Group-2" filter="url(#filter-1)" transform="translate(0.000000, 39.000000)">
                    <g id="01">
                        <path d="M526.358406,36.1606647 C526.686177,36.4832905 526.696471,37.0168559 526.381259,37.3525469 C526.219639,37.5245016 526.003665,37.6111111 525.787484,37.6111111 C525.58201,37.6111111 525.376536,37.5331415 525.216768,37.3759378 L519.863733,32.1077175 C519.702319,31.9488279 519.611111,31.7292485 519.611111,31.4999756 C519.611111,31.2709134 519.702319,31.0513339 519.863733,30.8924444 L525.216768,25.6242241 C525.544539,25.3015983 526.066048,25.311924 526.381259,25.647615 C526.696471,25.983306 526.686177,26.5168714 526.358406,26.8394972 L521.622823,31.4999756 L526.358406,36.1606647 Z" id="dropdown-arrow" transform="translate(523.111111, 31.500000) scale(-1, 1) rotate(-90.000000) translate(-523.111111, -31.500000) "></path>
                    </g>
                </g>
            </g>
        </g>
    </g>
</svg>