<?xml version="1.0" encoding="UTF-8"?>
<svg width="14px" height="14px" viewBox="0 0 14 14" version="1.1" xmlns="http://www.w3.org/2000/svg" xmlns:xlink="http://www.w3.org/1999/xlink">
    <!-- Generator: Sketch 53.2 (72643) - https://sketchapp.com -->
    <title>filter-icon</title>
    <desc>Created with Sketch.</desc>
    <g id="Page-1" stroke="none" stroke-width="1" fill="none" fill-rule="evenodd">
        <g id="filter-icon" fill="#00334E" fill-rule="nonzero">
            <g id="Group">
                <g id="Shape">
                    <g>
                        <path d="M5.74878538,7.58333333 C5.49779186,8.42668426 4.71654768,9.04166667 3.79166667,9.04166667 C2.86678565,9.04166667 2.08554146,8.42668426 1.83454795,7.58333333 L0.583738537,7.58333333 C0.261348645,7.58333333 8.8817842e-16,7.3244122 8.8817842e-16,7 C8.8817842e-16,6.6778339 0.261023711,6.41666667 0.583738537,6.41666667 L1.83454795,6.41666667 C2.08554146,5.57331574 2.86678565,4.95833333 3.79166667,4.95833333 C4.71654768,4.95833333 5.49779186,5.57331574 5.74878538,6.41666667 L13.4162615,6.41666667 C13.7386514,6.41666667 14,6.6755878 14,7 C14,7.3221661 13.7389763,7.58333333 13.4162615,7.58333333 L5.74878538,7.58333333 Z M8.25121462,11.375 C8.50220814,10.5316491 9.28345233,9.91666667 10.2083333,9.91666667 C11.1332143,9.91666667 11.9144585,10.5316491 12.165452,11.375 L13.4162615,11.375 C13.7386514,11.375 14,11.6339211 14,11.9583333 C14,12.2804994 13.7389763,12.5416667 13.4162615,12.5416667 L12.165452,12.5416667 C11.9144585,13.3850176 11.1332143,14 10.2083333,14 C9.28345233,14 8.50220814,13.3850176 8.25121462,12.5416667 L0.583738537,12.5416667 C0.261348645,12.5416667 -7.94580693e-17,12.2827455 0,11.9583333 C7.89079378e-17,11.6361672 0.261023711,11.375 0.583738537,11.375 L8.25121462,11.375 Z M8.25121462,1.45833333 C8.50220814,0.61498239 9.28345233,-2.26530516e-16 10.2083333,0 C11.1332143,2.26530516e-16 11.9144585,0.61498239 12.165452,1.45833333 L13.4162615,1.45833333 C13.7386514,1.45833333 14,1.71725448 14,2.04166667 C14,2.36383277 13.7389763,2.625 13.4162615,2.625 L12.165452,2.625 C11.9144585,3.46835093 11.1332143,4.08333333 10.2083333,4.08333333 C9.28345233,4.08333333 8.50220814,3.46835093 8.25121462,2.625 L0.583738537,2.625 C0.261348645,2.625 -7.94580693e-17,2.36607886 0,2.04166667 C7.89079378e-17,1.71950056 0.261023711,1.45833333 0.583738537,1.45833333 L8.25121462,1.45833333 Z M10.2083333,2.91666667 C10.6915825,2.91666667 11.0833333,2.52491582 11.0833333,2.04166667 C11.0833333,1.55841751 10.6915825,1.16666667 10.2083333,1.16666667 C9.72508419,1.16666667 9.33333333,1.55841751 9.33333333,2.04166667 C9.33333333,2.52491582 9.72508419,2.91666667 10.2083333,2.91666667 Z M10.2083333,12.8333333 C10.6915825,12.8333333 11.0833333,12.4415825 11.0833333,11.9583333 C11.0833333,11.4750842 10.6915825,11.0833333 10.2083333,11.0833333 C9.72508419,11.0833333 9.33333333,11.4750842 9.33333333,11.9583333 C9.33333333,12.4415825 9.72508419,12.8333333 10.2083333,12.8333333 Z M3.79166667,6.125 C3.30841753,6.125 2.91666667,6.51675086 2.91666667,7 C2.91666667,7.48324914 3.30841753,7.875 3.79166667,7.875 C4.27491581,7.875 4.66666667,7.48324914 4.66666667,7 C4.66666667,6.51675086 4.27491581,6.125 3.79166667,6.125 Z"></path>
                    </g>
                </g>
            </g>
        </g>
    </g>
</svg>