<svg xmlns="http://www.w3.org/2000/svg" width="27" height="27" viewBox="0 0 27 27">
  <metadata><?xpacket begin="﻿" id="W5M0MpCehiHzreSzNTczkc9d"?>
<x:xmpmeta xmlns:x="adobe:ns:meta/" x:xmptk="Adobe XMP Core 5.6-c142 79.160924, 2017/07/13-01:06:39        ">
   <rdf:RDF xmlns:rdf="http://www.w3.org/1999/02/22-rdf-syntax-ns#">
      <rdf:Description rdf:about=""/>
   </rdf:RDF>
</x:xmpmeta>
                                                                                                    
                                                                                                    
                                                                                                    
                                                                                                    
                                                                                                    
                                                                                                    
                                                                                                    
                                                                                                    
                                                                                                    
                                                                                                    
                                                                                                    
                                                                                                    
                                                                                                    
                                                                                                    
                                                                                                    
                                                                                                    
                                                                                                    
                                                                                                    
                                                                                                    
                                                                                                    
                           
<?xpacket end="w"?></metadata>
<defs>
    <style>
      .cls-1 {
        fill: #00334e;
        fill-rule: evenodd;
      }
    </style>
  </defs>
  <g id="Artboard_1" data-name="Artboard 1">
    <path id="Original_-_Path" data-name="Original - Path" class="cls-1" d="M19.919,20.683a0.5,0.5,0,0,0,.5-0.494V11.221a0.493,0.493,0,0,0-.173-0.374L13.313,4.916a0.5,0.5,0,0,0-.651,0L5.606,10.851a0.492,0.492,0,0,0-.176.376v8.961a0.5,0.5,0,0,0,.5.494H9.715V14.413h6.612v6.269h3.592Zm-8.554,1.63H5.931a2.138,2.138,0,0,1-2.15-2.125V11.228A2.114,2.114,0,0,1,4.536,9.61l7.056-5.938a2.17,2.17,0,0,1,2.8.011l6.933,5.931a2.113,2.113,0,0,1,.743,1.606v8.967a2.138,2.138,0,0,1-2.15,2.125H14.677v-6.27H11.365v6.27Z"/>
  </g>
</svg>
