<?xml version="1.0" encoding="UTF-8"?>
<svg width="20px" height="23px" viewBox="0 0 20 23" version="1.1" xmlns="http://www.w3.org/2000/svg" xmlns:xlink="http://www.w3.org/1999/xlink">
    <!-- Generator: Sketch 53.2 (72643) - https://sketchapp.com -->
    <title>Location-icon</title>
    <desc>Created with Sketch.</desc>
    <defs>
        <filter x="-2.4%" y="-5.0%" width="104.8%" height="109.9%" filterUnits="objectBoundingBox" id="filter-1">
            <feOffset dx="0" dy="0" in="SourceAlpha" result="shadowOffsetOuter1"></feOffset>
            <feGaussianBlur stdDeviation="2.5" in="shadowOffsetOuter1" result="shadowBlurOuter1"></feGaussianBlur>
            <feComposite in="shadowBlurOuter1" in2="SourceAlpha" operator="out" result="shadowBlurOuter1"></feComposite>
            <feColorMatrix values="0 0 0 0 0   0 0 0 0 0   0 0 0 0 0  0 0 0 0.15 0" type="matrix" in="shadowBlurOuter1" result="shadowMatrixOuter1"></feColorMatrix>
            <feMerge>
                <feMergeNode in="shadowMatrixOuter1"></feMergeNode>
                <feMergeNode in="SourceGraphic"></feMergeNode>
            </feMerge>
        </filter>
    </defs>
    <g id="Page-1" stroke="none" stroke-width="1" fill="none" fill-rule="evenodd">
        <g id="Dashboard-/-main-1.4" transform="translate(-90.000000, -496.000000)" fill="#D0021B" fill-rule="nonzero">
            <g id="lightBox" filter="url(#filter-1)" transform="translate(80.000000, 406.000000)">
                <g id="Group-7" transform="translate(15.000000, 60.000000)">
                    <g id="Group-2-Copy" transform="translate(0.000000, 0.000000)">
                        <g id="Group-9" transform="translate(0.000000, 32.000000)">
                            <g id="Location" transform="translate(0.000000, 3.000000)">
                                <path d="M9.95712859,4.09640305 C9.4581612,1.38009799 6.8256614,-0.4174888 4.10114487,0.0838937299 C1.73431019,0.518618467 0.00362270614,2.60722932 0,5.23393278 C0.00917752223,6.08623478 0.312760297,7.05108218 0.923548553,7.91473533 C2.16203103,9.66619299 3.40534377,11.4166846 4.64744895,13.1669347 C4.86360375,13.471725 5.17998676,13.471725 5.39614156,13.1693498 C6.63824674,11.4178922 7.88494068,9.67078175 9.11883439,7.9159429 C9.92959602,6.76223175 10.2124086,5.48100134 9.95712859,4.09640305 Z M5.02469342,7.97535528 C3.36839217,7.97535528 2.02678333,6.63374644 2.02678333,4.97744519 C2.02678333,3.32210999 3.36839217,1.9795351 5.02469342,1.9795351 C6.68002861,1.9795351 8.02260351,3.32210999 8.02260351,4.97744519 C8.02260351,6.63350492 6.6797871,7.97535528 5.02469342,7.97535528 Z"></path>
                            </g>
                        </g>
                    </g>
                </g>
            </g>
        </g>
    </g>
</svg>