<svg xmlns="http://www.w3.org/2000/svg" width="27" height="27" viewBox="0 0 27 27">
  <metadata><?xpacket begin="﻿" id="W5M0MpCehiHzreSzNTczkc9d"?>
<x:xmpmeta xmlns:x="adobe:ns:meta/" x:xmptk="Adobe XMP Core 5.6-c142 79.160924, 2017/07/13-01:06:39        ">
   <rdf:RDF xmlns:rdf="http://www.w3.org/1999/02/22-rdf-syntax-ns#">
      <rdf:Description rdf:about=""/>
   </rdf:RDF>
</x:xmpmeta>
                                                                                                    
                                                                                                    
                                                                                                    
                                                                                                    
                                                                                                    
                                                                                                    
                                                                                                    
                                                                                                    
                                                                                                    
                                                                                                    
                                                                                                    
                                                                                                    
                                                                                                    
                                                                                                    
                                                                                                    
                                                                                                    
                                                                                                    
                                                                                                    
                                                                                                    
                                                                                                    
                           
<?xpacket end="w"?></metadata>
<defs>
    <style>
      .cls-1 {
        fill: #00334e;
        fill-rule: evenodd;
      }
    </style>
  </defs>
  <g id="Artboard_1" data-name="Artboard 1">
    <path id="Original_-Path_" data-name="Original -Path " class="cls-1" d="M6.248,6.911a4.459,4.459,0,0,0-1.2,4.138c0.444,1.962,1.9,4.2,4.392,6.69,2.332,2.331,4.424,3.738,6.253,4.234a4.461,4.461,0,0,0,4.322-1.15l1.567-1.566L18.4,16.072l-1.311,1.311a2.015,2.015,0,0,1-2.266.406,11.346,11.346,0,0,1-3.084-2.344,12.544,12.544,0,0,1-2.511-3.306,2.014,2.014,0,0,1,.394-2.292L10.9,8.571,7.743,5.417Zm2-3.02,4.172,4.171a0.72,0.72,0,0,1,0,1.017l-1.785,1.784a0.576,0.576,0,0,0-.112.655,11.206,11.206,0,0,0,2.23,2.909,10.066,10.066,0,0,0,2.668,2.054,0.575,0.575,0,0,0,.647-0.116l1.82-1.82a0.72,0.72,0,0,1,1.017,0l4.2,4.2a0.719,0.719,0,0,1,0,1.017L21.037,21.84a5.9,5.9,0,0,1-5.716,1.522c-2.109-.572-4.4-2.112-6.894-4.605-2.665-2.665-4.264-5.119-4.778-7.389A5.9,5.9,0,0,1,5.231,5.894l2-2A0.719,0.719,0,0,1,8.252,3.892Z"/>
  </g>
</svg>
