<svg xmlns="http://www.w3.org/2000/svg" width="27" height="27" viewBox="0 0 27 27">
  <metadata><?xpacket begin="﻿" id="W5M0MpCehiHzreSzNTczkc9d"?>
<x:xmpmeta xmlns:x="adobe:ns:meta/" x:xmptk="Adobe XMP Core 5.6-c142 79.160924, 2017/07/13-01:06:39        ">
   <rdf:RDF xmlns:rdf="http://www.w3.org/1999/02/22-rdf-syntax-ns#">
      <rdf:Description rdf:about=""/>
   </rdf:RDF>
</x:xmpmeta>
                                                                                                    
                                                                                                    
                                                                                                    
                                                                                                    
                                                                                                    
                                                                                                    
                                                                                                    
                                                                                                    
                                                                                                    
                                                                                                    
                                                                                                    
                                                                                                    
                                                                                                    
                                                                                                    
                                                                                                    
                                                                                                    
                                                                                                    
                                                                                                    
                                                                                                    
                                                                                                    
                           
<?xpacket end="w"?></metadata>
<defs>
    <style>
      .cls-1 {
        fill: #38c42b;
        fill-rule: evenodd;
      }
    </style>
  </defs>
  <g id="Artboard_1" data-name="Artboard 1">
    <path id="_-e-profile-rating4" data-name="-e-profile-rating4" class="cls-1" d="M22.969,5.469h2.656a0.875,0.875,0,0,1,.875.875V20.906a0.875,0.875,0,0,1-.875.875H22.969a0.875,0.875,0,0,1-.875-0.875V6.344A0.875,0.875,0,0,1,22.969,5.469ZM15.844,9.75h2.719a0.875,0.875,0,0,1,.875.875V20.906a0.875,0.875,0,0,1-.875.875H15.844a0.875,0.875,0,0,1-.875-0.875V10.625A0.875,0.875,0,0,1,15.844,9.75ZM8.781,13.188h2.688a0.875,0.875,0,0,1,.875.875v6.844a0.875,0.875,0,0,1-.875.875H8.781a0.875,0.875,0,0,1-.875-0.875V14.063A0.875,0.875,0,0,1,8.781,13.188ZM1.719,16.656H4.375a0.875,0.875,0,0,1,.875.875v3.375a0.875,0.875,0,0,1-.875.875H1.719a0.875,0.875,0,0,1-.875-0.875V17.531A0.875,0.875,0,0,1,1.719,16.656Z"/>
  </g>
</svg>
