<?xml version="1.0" encoding="UTF-8"?>
<svg width="22px" height="22px" viewBox="0 0 22 22" version="1.1" xmlns="http://www.w3.org/2000/svg" xmlns:xlink="http://www.w3.org/1999/xlink">
    <!-- Generator: Sketch 53.2 (72643) - https://sketchapp.com -->
    <title>search-off</title>
    <desc>Created with Sketch.</desc>
    <defs>
        <path d="M20.523185,19.7094303 C21.1472845,20.3414918 21.1587247,20.3530779 20.5575056,19.7441888 C19.4513123,18.6238832 17.7920224,16.9434248 15.5796359,14.7028137 C16.7789889,13.2604123 17.4911048,11.3625156 17.4911048,9.3507452 C17.4911048,4.75783534 13.7806062,1 9.24555241,1 C4.71049859,1 1,4.75783534 1,9.3507452 C1,13.9436551 4.71049859,17.7014904 9.24555241,17.7014904 C11.2319809,17.7014904 13.1059701,16.9802897 14.5302019,15.7656358 C16.7273349,17.9907988 18.3751846,19.6596709 19.4737511,20.7722524 C19.7735893,21.0759159 20.2233467,21.0759159 20.523185,20.7722524 C20.8230233,20.4685889 20.8230233,20.0130937 20.523185,19.7094303 Z M9.26963784,16.2991158 C5.41963784,16.2991158 2.26963784,13.1491158 2.26963784,9.29911585 C2.26963784,5.44911585 5.41963784,2.29911585 9.26963784,2.29911585 C13.1196378,2.29911585 16.2696378,5.44911585 16.2696378,9.29911585 C16.2696378,13.1491158 13.1196378,16.2991158 9.26963784,16.2991158 Z" id="path-1"></path>
    </defs>
    <g id="Page-1" stroke="none" stroke-width="1" fill="none" fill-rule="evenodd">
        <mask id="mask-2" fill="white">
            <use xlink:href="#path-1"></use>
        </mask>
        <use id="search-off" stroke="#708C9B" stroke-width="0.2" fill="#708C9B" fill-rule="nonzero" xlink:href="#path-1"></use>
    </g>
</svg>